<svg width="51" height="50" viewBox="0 0 51 50" fill="none" xmlns="http://www.w3.org/2000/svg">
<rect x="1" y="1" width="48.2564" height="48" rx="24" stroke="#2D9CDB" stroke-width="2"/>
<path d="M18.7695 9.875C13.8872 9.875 9.875 13.8818 9.875 18.7695V31.2305C9.875 36.1128 13.8818 40.125 18.7695 40.125H31.2305C36.1128 40.125 40.125 36.1182 40.125 31.2305V18.7695C40.125 13.8872 36.1182 9.875 31.2305 9.875H18.7695ZM18.7695 12.625H31.2305C34.6304 12.625 37.375 15.3696 37.375 18.7695V31.2305C37.375 34.6304 34.6304 37.375 31.2305 37.375H18.7695C15.3696 37.375 12.625 34.6304 12.625 31.2305V18.7695C12.625 15.3696 15.3696 12.625 18.7695 12.625ZM33.1211 15.6328C32.4282 15.6328 31.875 16.186 31.875 16.8789C31.875 17.5718 32.4282 18.125 33.1211 18.125C33.814 18.125 34.3672 17.5718 34.3672 16.8789C34.3672 16.186 33.814 15.6328 33.1211 15.6328ZM25 16.75C20.4614 16.75 16.75 20.4614 16.75 25C16.75 29.5386 20.4614 33.25 25 33.25C29.5386 33.25 33.25 29.5386 33.25 25C33.25 20.4614 29.5386 16.75 25 16.75ZM25 19.5C28.0562 19.5 30.5 21.9438 30.5 25C30.5 28.0562 28.0562 30.5 25 30.5C21.9438 30.5 19.5 28.0562 19.5 25C19.5 21.9438 21.9438 19.5 25 19.5Z" fill="#2D9CDB"/>
</svg>
